{"title":"Fast.Five.2011.Theatrical.Cut.DVDRip.XviD-EXViD","uid":6666752,"size":1488976144,"categoryP":"video","categoryS":"movies","magnet":"?xt=urn:btih:423b1ac0cf3c1ce224c6368131f834ec866ed23e&amp;dn=Fast.Five.2011.Theatrical.Cut.DVDRip.XviD-EXViD&amp;tr=udp%3A%2F%2Ftracker.openbittorrent.com%3A80&amp;tr=udp%3A%2F%2Fopen.demonii.com%3A1337&amp;tr=udp%3A%2F%2Ftracker.coppersurfer.tk%3A6969&amp;tr=udp%3A%2F%2Fexodus.desync.com%3A6969","seeders":0,"leechers":1,"uploader":"TvTeam","files":9,"time":1315715143,"description":". \n  &lt;a href=&quot;\nhttp://www.torrenting.com/&quot; rel=&quot;nofollow&quot; target=&quot;_NEW&quot;&gt;\nhttp://www.torrenting.com/&lt;/a&gt;        :     Greatest Movie Tracker on The Net!!!\n &lt;a href=&quot;\nhttp://www.Torrenting.com&quot; rel=&quot;nofollow&quot; target=&quot;_NEW&quot;&gt;\nhttp://www.Torrenting.com&lt;/a&gt;          :     Once &amp; For all ;)\n\n\n               www . Torrenting . Com \n\n(((((((((((((= Enjoy No RAR releases =))))))))))))))))))))\n\n\n...................................NFO:....................................\n\n.                                                                                                     \n       \n     \n     \n       \n       \n     \n     \n                                         \n                                         \n                EXVID                    \n                                         \n         \n                                         \n         Filled the Archives             \n                                         \n         \n                                         \n                With:                    \n                                         \n         \n                                         \n                                    \n     E240                           \n                                    \n     SP               (C) 2009      \n                                         \n     \n     \n     \n                                                                                  \n                                                                                   \n             Fast.Five.2011.Theatrical.Cut.DVDRip.XviD-EXViD                        \n                                                                                   \n                                                                                  \n     \n                                                                                               \nEXViD aims to iNTERNAL those releases which have been lost in the archives.\nEXViD aims to PRE non-internal releases which have poor sources and are likely skipped by others.\n &lt;a href=&quot;\nhttp://www.imdb.com/title/tt1596343/&quot; rel=&quot;nofollow&quot; target=&quot;_NEW&quot;&gt;\nhttp://www.imdb.com/title/tt1596343/&lt;/a&gt;\nSubtitles: EN, DE, TR, NL, DA, FI, NO, SV\nDate: 2011.09\n\nDirector: Justin Lin\n\nGenres: Action | Crime | Drama | Thriller\n\nPlot:\nFormer cop Brian O'Conner partners with ex-con Dom Toretto on the opposite side of the law.\nSince Brian and Mia Toretto broke Dom out of custody, they've blown across many borders to\nelude authorities. Now backed into a corner in Rio de Janeiro, they must pull one last job\nin order to gain their freedom. As they assemble their elite team of top racers, the unlikely\nallies know their only shot of getting out for good means confronting the corrupt businessman\nwho wants them dead. But he's not the only one on their tail. Hard-nosed federal agent Luke\nHobbs never misses his target. When he is assigned to track down Dom and Brian, he and his\nstrike team launch an all-out assault to capture them. But as his men tear through Brazil,\nHobbs learns he can't separate the good guys from the bad. Now, he must rely on his instincts\nto corner his prey... before someone else runs them down first.\n\nCast:\nVin Diesel \t ... \t Dominic Toretto\nPaul Walker \t ... \t Brian O'Conner\nJordana Brewster \t ... \t Mia Toretto\nTyrese Gibson \t ... \t Roman Pearce\nLudacris \t ... \t Tej Parker (as Chris 'Ludacris' Bridges)\nElsa Pataky \t ... \t Elena Neves\nGal Gadot \t ... \t Gisele Harabo\nTego Calderon \t ... \t Tego Leo\nDon Omar \t ... \t Rico Santos\nMatt Schulze \t ... \t Vince\nDwayne Johnson \t ... \t Luke Hobbs\nSung Kang \t ... \t Han Lue\nJoaquim de Almeida \t ... \t Hernan Reyes\nMichael Irby \t ... \t Zizi\nFernando Chien \t ... \t Wilkes\n\nStats:\nFormat                           : AVI\nFormat/Info                      : Audio Video Interleave\nFile size                        : 1.37 GiB\nDuration                         : 2h 5mn\nOverall bit rate                 : 1 567 Kbps\nWriting application              : Nandub v1.0rc2\nWriting library                  : Nandub build 1852/release\n\nVideo\nID                               : 0\nFormat                           : MPEG-4 Visual\nFormat profile                   : Advanced Simple@L5\nFormat settings, BVOP            : 2\nFormat settings, QPel            : No\nFormat settings, GMC             : No warppoints\nFormat settings, Matrix          : Default (H.263)\nCodec ID                         : XVID\nCodec ID/Hint                    : XviD\nDuration                         : 2h 5mn\nBit rate                         : 1 176 Kbps\nWidth                            : 640 pixels\nHeight                           : 272 pixels\nDisplay aspect ratio             : 2.35:1\nFrame rate                       : 25.000 fps\nColor space                      : YUV\nChroma subsampling               : 4:2:0\nBit depth                        : 8 bits\nScan type                        : Progressive\nCompression mode                 : Lossy\nBits/(Pixel*Frame)               : 0.270\nStream size                      : 1.03 GiB (75%)\nWriting library                  : XviD 64\n\nAudio\nID                               : 1\nFormat                           : AC-3\nFormat/Info                      : Audio Coding 3\nMode extension                   : CM (complete main)\nCodec ID                         : 2000\nDuration                         : 2h 5mn\nBit rate mode                    : Constant\nBit rate                         : 384 Kbps\nChannel(s)                       : 6 channels\nChannel positions                : Front: L C R, Side: L R, LFE\nSampling rate                    : 48.0 KHz\nBit depth                        : 16 bits\nCompression mode                 : Lossy\nStream size                      : 343 MiB (25%)\nAlignment                        : Aligned on interleaves\nInterleave, duration             : 96 ms (2.40 video frames)\nInterleave, preload duration     : 96 ms\n\n\n\n\nRelease notes:\nDoNE did the EXTENDED, this is the THEATRiCAL cut which is about 60 seconds shorter.\n\nenjoy!\n\nLooking for:\n75TB+ Archives\nDUTCH/FLEMiSH Archives\n                                                                                                    \nGreets: CRBS EPiSODE FiCO FLS iLS KLASSiGER LiPSYNC MADE NODLABS RUNNER SPRiNTER      \n   \n\n                                                                    ASCII DONE BY XX^NFO 2oo9","torrent":{"xt":"urn:btih:423b1ac0cf3c1ce224c6368131f834ec866ed23e","amp;dn":"Fast.Five.2011.Theatrical.Cut.DVDRip.XviD-EXViD","amp;tr":["udp%3A%2F%2Ftracker.openbittorrent.com%3A80","udp%3A%2F%2Fopen.demonii.com%3A1337","udp%3A%2F%2Ftracker.coppersurfer.tk%3A6969","udp%3A%2F%2Fexodus.desync.com%3A6969"],"infoHash":"423b1ac0cf3c1ce224c6368131f834ec866ed23e","infoHashBuffer":{"type":"Buffer","data":[66,59,26,192,207,60,28,226,36,198,54,129,49,248,52,236,134,110,210,62]},"announce":[],"urlList":[]}}